<?xml version="1.0" encoding="UTF-8"?>
<svg width="128pt" height="128pt" version="1.1" viewBox="0 0 128 128" xmlns="http://www.w3.org/2000/svg">
 <path d="m64 0c-8.4062 0-16.727 1.6562-24.492 4.8711-7.7656 3.2188-14.82 7.9297-20.762 13.875-5.9453 5.9414-10.656 12.996-13.875 20.762-3.2148 7.7656-4.8711 16.086-4.8711 24.492 0 16.973 6.7422 33.254 18.746 45.254 12 12.004 28.281 18.746 45.254 18.746s33.254-6.7422 45.254-18.746c12.004-12 18.746-28.281 18.746-45.254s-6.7422-33.254-18.746-45.254c-12-12.004-28.281-18.746-45.254-18.746zm0 7.2266c7.375 0 14.672 1.4688 21.484 4.3242 6.8125 2.8516 13 7.0352 18.215 12.305 5.2148 5.2734 9.3477 11.531 12.172 18.418 2.8203 6.8906 4.2734 14.27 4.2734 21.727 0 15.059-5.918 29.496-16.445 40.145-10.527 10.645-24.809 16.629-39.699 16.629-7.3711 0-14.672-1.4688-21.484-4.3242-6.8125-2.8516-13-7.0352-18.215-12.305-5.2148-5.2734-9.3477-11.531-12.172-18.418-2.8203-6.8867-4.2734-14.27-4.2734-21.727s1.4531-14.836 4.2734-21.727c2.8242-6.8867 6.957-13.145 12.172-18.418 5.2148-5.2695 11.402-9.4531 18.215-12.305 6.8125-2.8555 14.113-4.3242 21.484-4.3242z" fill="#007335"/>
 <path d="m74.148 35.355c-15.312-14.625-40.562-3.4297-40.449 17.949v33.371c0.007812 4.4961 2.4062 8.6484 6.3008 10.895 3.8945 2.2461 8.6914 2.2461 12.586 0 3.8945-2.25 6.293-6.3984 6.3008-10.895v-2.9609c-0.03125-3.75 2.3828-7.0859 5.9531-8.2227 17.195-5.1602 22.441-27.938 9.3086-40.133zm-5.4297 29.996v0.003907c-0.51172 0.45703-1.2969 0.41797-1.7617-0.089844-0.46484-0.50781-0.4375-1.293 0.0625-1.7617 2.8047-2.5898 4.418-6.2148 4.457-10.031 0.039063-3.8164-1.4961-7.4766-4.2422-10.125-2.75-2.6484-6.4688-4.043-10.277-3.8594-1.6211 0.074219-3.2109 0.44531-4.6992 1.0977l0.32813-0.011719c15.062 0.26953 18.277 21.07 3.9922 25.828-3.6797 1.1719-6.1758 4.5977-6.1602 8.4609v3.2617c-0.019531 3.0391-2.4883 5.4922-5.5273 5.4922-3.043 0-5.5117-2.4531-5.5312-5.4922v-4.043c0.011719-0.6875 0.57422-1.2344 1.2578-1.2344 0.6875 0 1.2461 0.54688 1.2578 1.2344v4.043c0.011719 1.6523 1.3555 2.9883 3.0117 2.9883 1.6523 0 2.9961-1.3359 3.0078-2.9883v-3.2617c-0.019531-4.9609 3.1914-9.3594 7.9219-10.855 5.1406-1.6328 8.2617-6.8281 7.293-12.133-0.96484-5.3008-5.7227-9.0586-11.109-8.7734-6.9297 0.042969-8.8633 7.4062-7.1289 13.461h0.003906c0.18359 0.67188-0.20312 1.3672-0.86719 1.5625-0.32031 0.089844-0.66406 0.050781-0.95703-0.11328-0.28906-0.16406-0.50391-0.43359-0.59375-0.75391-1.5469-4.7695-0.64844-9.9961 2.4062-13.977 2.8164-3.6328 7.0391-5.9023 11.625-6.2422 4.5859-0.34375 9.1016 1.2734 12.426 4.4414 3.2539 3.1328 5.0703 7.4648 5.0312 11.98-0.039062 4.5156-1.9297 8.8164-5.2344 11.895z" fill="#007335"/>
 <path d="m93.043 57.078h-5.668c-0.69531 0-1.2578 0.5625-1.2578 1.2578 0 0.69531 0.5625 1.2578 1.2578 1.2578h5.668c0.69531 0 1.2578-0.5625 1.2578-1.2578 0-0.69531-0.5625-1.2578-1.2578-1.2578z" fill="#007335"/>
 <path d="m87.375 47.008c0.33203 0 0.65625-0.13281 0.89062-0.36719l4.4102-4.4102c0.49219-0.49219 0.49219-1.2891 0-1.7812-0.49219-0.49219-1.293-0.49219-1.7812 0l-4.4102 4.4102h0.003906c-0.36328 0.35938-0.46875 0.90234-0.27344 1.3711 0.19531 0.46875 0.65625 0.77734 1.1602 0.77734z" fill="#007335"/>
 <path d="m88.266 70.043c-0.49219-0.49219-1.2891-0.48828-1.7773 0.003906-0.48828 0.48828-0.49219 1.2852 0 1.7773l4.4102 4.4102h-0.003907c0.23438 0.23438 0.55859 0.37109 0.89062 0.37109 0.33594 0 0.65625-0.13281 0.89453-0.36719 0.23437-0.23438 0.36719-0.55859 0.36719-0.89062 0-0.33594-0.13672-0.65625-0.37109-0.89062z" fill="#007335"/>
</svg>
