<?xml version="1.0" encoding="UTF-8"?>
<svg width="128pt" height="128pt" version="1.1" viewBox="0 0 128 128" xmlns="http://www.w3.org/2000/svg">
 <path d="m64 0c-8.4062 0-16.727 1.6562-24.492 4.8711-7.7656 3.2188-14.82 7.9297-20.762 13.875-5.9453 5.9414-10.656 12.996-13.875 20.762-3.2148 7.7656-4.8711 16.086-4.8711 24.492 0 16.973 6.7422 33.254 18.746 45.254 12 12.004 28.281 18.746 45.254 18.746s33.254-6.7422 45.254-18.746c12.004-12 18.746-28.281 18.746-45.254s-6.7422-33.254-18.746-45.254c-12-12.004-28.281-18.746-45.254-18.746zm0 7.2266c7.375 0 14.672 1.4688 21.484 4.3242 6.8125 2.8516 13 7.0352 18.215 12.305 5.2148 5.2734 9.3477 11.531 12.172 18.418 2.8203 6.8906 4.2734 14.27 4.2734 21.727 0 15.059-5.918 29.496-16.445 40.145-10.527 10.645-24.809 16.629-39.699 16.629-7.3711 0-14.672-1.4688-21.484-4.3242-6.8125-2.8516-13-7.0352-18.215-12.305-5.2148-5.2734-9.3477-11.531-12.172-18.418-2.8203-6.8867-4.2734-14.27-4.2734-21.727s1.4531-14.836 4.2734-21.727c2.8242-6.8867 6.957-13.145 12.172-18.418 5.2148-5.2695 11.402-9.4531 18.215-12.305 6.8125-2.8555 14.113-4.3242 21.484-4.3242z" fill="#007335"/>
 <path d="m31.758 91.914h64.488l-32.246-55.828zm35.098-38.766 16.387 28.383c1.2891 2.1992-0.30469 4.957-2.8555 4.957h-32.773c-2.5469 0-4.1367-2.7578-2.8555-4.957l16.387-28.383c1.2656-2.1992 4.4453-2.1992 5.7109 0z" fill="#007335"/>
</svg>
